<?xml version="1.0" encoding="UTF-8"?>
<svg version="1.1" xmlns="http://www.w3.org/2000/svg" width="416" height="122">
<path d="M0 0 C12.6571466 10.17639125 21.72127793 23.57130814 24.33349609 39.76318359 C26.01239474 58.49078778 22.92527759 74.33665626 11.23193359 89.48583984 C1.56992121 100.80370948 -12.12034373 109.69121655 -27.25244141 110.98413086 C-38.93948068 111.46937376 -49.81112625 111.51827698 -60.66650391 106.76318359 C-61.54048828 106.41255859 -62.41447266 106.06193359 -63.31494141 105.70068359 C-70.21347043 102.64410458 -75.35926352 98.05249412 -80.66650391 92.76318359 C-81.30587891 92.14701172 -81.94525391 91.53083984 -82.60400391 90.89599609 C-93.62869113 79.42835269 -98.18232111 63.70183543 -98.01831055 48.12255859 C-97.43945701 30.24019047 -89.87708935 15.54080331 -77.16650391 3.13818359 C-55.63155554 -14.71593863 -22.74085613 -16.87740656 0 0 Z M-27.60400391 18.45068359 C-28.31113525 18.93819092 -29.0182666 19.42569824 -29.74682617 19.92797852 C-35.99089915 24.25300467 -42.1533658 28.68798158 -48.28540039 33.17016602 C-49.33836304 33.93744019 -49.33836304 33.93744019 -50.41259766 34.72021484 C-51.44489502 35.4755249 -51.44489502 35.4755249 -52.49804688 36.24609375 C-54.02296271 37.3129511 -55.58360817 38.32963561 -57.16699219 39.30761719 C-58.39071533 40.06486084 -58.39071533 40.06486084 -59.63916016 40.83740234 C-60.75883179 41.50195435 -60.75883179 41.50195435 -61.90112305 42.17993164 C-64.19167314 44.23417274 -64.43082314 45.74454966 -64.66650391 48.76318359 C-62.75430806 50.67537944 -59.33004887 50.00753657 -56.78759766 50.07958984 C-56.10093521 50.10037094 -55.41427277 50.12115204 -54.70680237 50.14256287 C-52.50597456 50.20812503 -50.30502416 50.26697374 -48.10400391 50.32568359 C-46.61505876 50.36886252 -45.12612617 50.4124766 -43.63720703 50.45654297 C-39.98043837 50.5638129 -36.32353073 50.66506131 -32.66650391 50.76318359 C-33.64232422 51.04291016 -34.61814453 51.32263672 -35.62353516 51.61083984 C-43.2787688 53.73916322 -43.2787688 53.73916322 -48.87353516 59.00537109 C-49.13521484 60.24544922 -49.39689453 61.48552734 -49.66650391 62.76318359 C-50.12013517 64.24761241 -50.58285285 65.72928601 -51.05322266 67.20849609 C-51.49194882 68.7669562 -51.92548832 70.32688511 -52.35400391 71.88818359 C-52.57894531 72.67322266 -52.80388672 73.45826172 -53.03564453 74.26708984 C-54.12289008 78.18646133 -54.97183013 81.6536576 -54.66650391 85.76318359 C-49.42860703 85.31740514 -46.07834996 82.52491909 -41.97900391 79.51318359 C-41.24512451 78.98394287 -40.51124512 78.45470215 -39.75512695 77.90942383 C-38.19438218 76.78266882 -36.63626037 75.65227308 -35.08056641 74.51855469 C-32.64909217 72.75052276 -30.2064984 70.99899101 -27.76025391 69.25146484 C-26.16625341 68.10988746 -24.57249651 66.96796983 -22.97900391 65.82568359 C-22.23755127 65.29491211 -21.49609863 64.76414063 -20.73217773 64.21728516 C-18.69737416 62.74916219 -16.67842156 61.26247142 -14.66650391 59.76318359 C-14.05597168 59.3182959 -13.44543945 58.8734082 -12.81640625 58.41503906 C-10.94671651 57.02848521 -10.94671651 57.02848521 -8.66650391 54.76318359 C-8.66650391 53.44318359 -8.66650391 52.12318359 -8.66650391 50.76318359 C-14.60650391 50.43318359 -20.54650391 50.10318359 -26.66650391 49.76318359 C-25.99361328 47.49958984 -25.32072266 45.23599609 -24.62744141 42.90380859 C-23.98527378 40.70721347 -23.34811626 38.50922321 -22.71142578 36.31103516 C-22.26645239 34.78476346 -21.81629035 33.25999448 -21.36083984 31.73681641 C-20.70680678 29.54623404 -20.07166477 27.35091338 -19.43994141 25.15380859 C-19.23275482 24.4744928 -19.02556824 23.795177 -18.81210327 23.09527588 C-17.97182566 20.11153253 -17.48493554 18.26591161 -18.55566406 15.30126953 C-18.92224121 14.79370117 -19.28881836 14.28613281 -19.66650391 13.76318359 C-22.24728991 13.76318359 -25.45808086 16.964928 -27.60400391 18.45068359 Z " fill="#3D66B0" transform="translate(97.66650390625,11.23681640625)"/>
<path d="M0 0 C3.3 0 6.6 0 10 0 C10 6.6 10 13.2 10 20 C17.26 20 24.52 20 32 20 C32 13.4 32 6.8 32 0 C35.3 0 38.6 0 42 0 C42 16.83 42 33.66 42 51 C38.7 51 35.4 51 32 51 C32 44.07 32 37.14 32 30 C24.74 30 17.48 30 10 30 C10 36.93 10 43.86 10 51 C6.7 51 3.4 51 0 51 C0 34.17 0 17.34 0 0 Z " fill="#000000" transform="translate(275,32)"/>
<path d="M0 0 C1.79296875 2.140625 1.79296875 2.140625 3 4 C2.09972412 5.03531726 1.17906965 6.05294165 0.25 7.0625 C-0.51570313 7.91521484 -0.51570313 7.91521484 -1.296875 8.78515625 C-3 10 -3 10 -5.015625 9.80859375 C-7 9 -7 9 -10 7 C-13.42017557 6.60041513 -16.87293041 6.4364652 -20 8 C-20 9.98 -20 11.96 -20 14 C-19.19949219 14.23783203 -19.19949219 14.23783203 -18.3828125 14.48046875 C-2.12755794 19.57078203 -2.12755794 19.57078203 2 26 C3.91134251 31.0389939 3.57624247 36.27586032 1.5 41.1875 C-0.53823078 44.80711673 -2.62699963 46.7667564 -6.4609375 48.375 C-14.08813079 50.25246296 -22.57290062 50.33725478 -29.4453125 46.22265625 C-31.72373117 44.43083453 -33.39873092 42.40190362 -35 40 C-33.02 38.02 -31.04 36.04 -29 34 C-28.484375 34.268125 -27.96875 34.53625 -27.4375 34.8125 C-26.633125 35.204375 -25.82875 35.59625 -25 36 C-23.9275 36.556875 -22.855 37.11375 -21.75 37.6875 C-17.11836749 39.30857138 -14.74876952 38.98250404 -10 38 C-8.76644994 36.95422888 -8.76644994 36.95422888 -8.5625 34.6875 C-8.74159193 31.78011109 -8.74159193 31.78011109 -11.375 29.9375 C-14.15056342 28.28930319 -17.043731 27.19059006 -20.0625 26.0625 C-25.51557794 23.95506988 -28.75687372 21.54275829 -31.375 16.1875 C-32.49002619 10.50086645 -32.02231455 6.64189912 -28.9375 1.6875 C-20.4351775 -6.09122059 -9.67746193 -5.56926761 0 0 Z " fill="#000000" transform="translate(175,35)"/>
<path d="M0 0 C3.3 0 6.6 0 10 0 C10.33 9.9 10.66 19.8 11 30 C12.381875 27.855 13.76375 25.71 15.1875 23.5 C17.95723874 19.57167156 19.76614014 17.29932276 24.55859375 16.13671875 C27.79454176 16.18279468 30.81898673 16.41664804 34 17 C29.93866463 22.59363406 25.6208599 27.85963514 21 33 C24.63971299 38.6395553 28.47924161 44.01308044 32.6796875 49.25 C34 51 34 51 34 52 C29.40065915 52.90833377 25.56341162 53.19219755 21 52 C16.62628173 48.2373454 13.80616614 42.96621728 11 38 C10.67 42.62 10.34 47.24 10 52 C6.7 52 3.4 52 0 52 C0 34.84 0 17.68 0 0 Z " fill="#000000" transform="translate(184,31)"/>
<path d="M0 0 C3.62549886 3.70789656 5.95650422 6.88687066 7 12 C6.67 14.31 6.34 16.62 6 19 C-2.25 19 -10.5 19 -19 19 C-14.88570537 23.94374373 -14.88570537 23.94374373 -11.9375 24.55859375 C-11.298125 24.51863281 -10.65875 24.47867188 -10 24.4375 C-9.319375 24.39496094 -8.63875 24.35242188 -7.9375 24.30859375 C-5.42779257 23.90886212 -3.26883427 23.13441713 -1 22 C0.65 23.65 2.3 25.3 4 27 C3.02903542 29.81579728 2.0441061 30.96750077 -0.375 32.75 C-6.94382165 35.01511091 -14.09368551 35.26372353 -20.5 32.3125 C-24.60599897 29.85060435 -27.20592025 27.39464675 -28.75 22.73828125 C-30.12050943 17.14488963 -30.58166512 12.26870434 -28 7 C-25.26021116 2.9442496 -22.49005574 -0.22257962 -18.125 -2.5 C-11.43260568 -3.57078309 -5.82489912 -3.97152213 0 0 Z M-19 10 C-19 10.66 -19 11.32 -19 12 C-14.05 11.67 -9.1 11.34 -4 11 C-5.57836298 7.31622777 -5.57836298 7.31622777 -7 6 C-12.45320774 5.4756531 -15.14307218 6.02619558 -19 10 Z " fill="#000000" transform="translate(407,50)"/>
<path d="M0 0 C3.63 0 7.26 0 11 0 C11.79211929 1.89564426 12.58367576 3.79152371 13.375 5.6875 C13.81585938 6.74324219 14.25671875 7.79898438 14.7109375 8.88671875 C15.34902344 10.42779297 15.34902344 10.42779297 16 12 C16.38414062 12.89332031 16.76828125 13.78664063 17.1640625 14.70703125 C18 17 18 17 18 20 C18.66 20 19.32 20 20 20 C20.1134375 19.15050781 20.226875 18.30101563 20.34375 17.42578125 C21.03929066 13.7948934 22.14840819 10.62541521 23.5 7.1875 C23.9434375 6.04667969 24.386875 4.90585937 24.84375 3.73046875 C26 1 26 1 27 0 C28.85287502 -0.07226502 30.70833878 -0.0838122 32.5625 -0.0625 C33.57441406 -0.05347656 34.58632813 -0.04445312 35.62890625 -0.03515625 C36.41136719 -0.02355469 37.19382812 -0.01195312 38 0 C33.70571229 11.97880255 28.33754512 23.4594039 23 35 C20.36 35 17.72 35 15 35 C11.01016058 27.44277474 7.50161001 19.72169393 4.125 11.875 C3.51700562 10.46988159 3.51700562 10.46988159 2.89672852 9.03637695 C2.52088623 8.15554443 2.14504395 7.27471191 1.7578125 6.3671875 C1.4189502 5.57425293 1.08008789 4.78131836 0.73095703 3.96435547 C0 2 0 2 0 0 Z " fill="#000000" transform="translate(340,48)"/>
<path d="M0 0 C3.3 0 6.6 0 10 0 C10 17.16 10 34.32 10 52 C6.7 52 3.4 52 0 52 C0 34.84 0 17.68 0 0 Z " fill="#000000" transform="translate(257,31)"/>
<path d="M0 0 C3.3 0 6.6 0 10 0 C10 17.16 10 34.32 10 52 C6.7 52 3.4 52 0 52 C0 34.84 0 17.68 0 0 Z " fill="#000000" transform="translate(239,31)"/>
<path d="M0 0 C3.3 0 6.6 0 10 0 C10 11.55 10 23.1 10 35 C6.7 35 3.4 35 0 35 C0 23.45 0 11.9 0 0 Z " fill="#000000" transform="translate(326,48)"/>
<path d="M0 0 C3.3 0 6.6 0 10 0 C10 11.55 10 23.1 10 35 C6.7 35 3.4 35 0 35 C0 23.45 0 11.9 0 0 Z " fill="#000000" transform="translate(221,48)"/>
<path d="M0 0 C1.32075472 5.28301887 1.32075472 5.28301887 -0.0625 8.375 C-2 10 -2 10 -5 10.5 C-8 10 -8 10 -9.9375 8.375 C-11.38619223 5.13674679 -11.09003153 3.34276335 -10 0 C-6.59554942 -3.02617829 -3.89949725 -1.59524888 0 0 Z " fill="#000000" transform="translate(336,33)"/>
<path d="M0 0 C1.32075472 5.28301887 1.32075472 5.28301887 -0.0625 8.375 C-2 10 -2 10 -5 10.5 C-8 10 -8 10 -9.9375 8.375 C-11.38619223 5.13674679 -11.09003153 3.34276335 -10 0 C-6.59554942 -3.02617829 -3.89949725 -1.59524888 0 0 Z " fill="#000000" transform="translate(231,33)"/>
</svg>
